# xmcd
#
# Track frame offsets: 
#        182
#        16207
#        31117
#        45020
#        61987
#        76100
#        93165
#        106577
#        125282
#        138617
#        152545
#        169607
#
# Disc length: 2446 seconds
#
# Revision: 0
# Processed by: cddbd v1.4PL0 Copyright (c) Steve Scherf et al.
# Submitted via: ExactAudioCopy v0.90b4
#
DISCID=77098c0c
DTITLE=Keith Perry - Keith Perry
DYEAR=1999
DGENRE=Country
TTITLE0=I'm Gonna Hurt Her On The Radio
TTITLE1=Don't Lie In My Arms
TTITLE2=Love Gets Around
TTITLE3=Hatfields And McCoys
TTITLE4=Right About Now
TTITLE5=When I Could Fly
TTITLE6=All I Give A Darn About Is You
TTITLE7=Easy Chair
TTITLE8=I'm The Only Mistake
TTITLE9=Workin' Class Of '93
TTITLE10=All Time Low
TTITLE11=Redneck U
EXTD=
EXTT0=
EXTT1=
EXTT2=
EXTT3=
EXTT4=
EXTT5=
EXTT6=
EXTT7=
EXTT8=
EXTT9=
EXTT10=
EXTT11=
PLAYORDER=
